<?xml version="1.0" standalone="no"?>
<!DOCTYPE svg PUBLIC "-//W3C//DTD SVG 20010904//EN"
 "http://www.w3.org/TR/2001/REC-SVG-20010904/DTD/svg10.dtd">
<svg version="1.0" xmlns="http://www.w3.org/2000/svg"
 width="300.000000pt" height="300.000000pt" viewBox="0 0 300.000000 300.000000"
 preserveAspectRatio="xMidYMid meet">

<g transform="translate(0.000000,300.000000) scale(0.100000,-0.100000)"
fill="#000000" stroke="none">
<path d="M1527 2249 c-33 -25 -51 -88 -44 -156 3 -28 4 -53 1 -55 -2 -3 -48
39 -101 93 -99 98 -140 123 -168 99 -26 -22 -105 -167 -131 -241 -34 -99 -40
-262 -10 -284 14 -11 24 -12 40 -3 l20 11 -22 8 c-65 24 -24 240 81 422 21 37
43 67 48 67 5 0 54 -42 110 -92 98 -91 100 -93 72 -99 -92 -19 -191 -105 -244
-214 -29 -61 -34 -80 -34 -145 0 -66 5 -83 35 -144 51 -100 99 -150 184 -191
40 -19 81 -35 90 -35 32 0 -4 35 -54 53 -100 36 -211 178 -226 291 -12 84 51
216 138 290 54 46 141 79 191 73 25 -3 42 0 51 9 21 21 141 18 215 -5 75 -23
189 -90 234 -136 32 -33 56 -47 42 -25 -3 6 0 10 7 10 7 0 -12 23 -42 50 -69
63 -216 138 -290 148 l-55 7 60 48 c33 26 88 62 122 79 138 68 222 41 248 -82
4 -19 12 -46 18 -60 5 -14 11 -47 14 -75 5 -55 13 -74 13 -31 0 19 4 25 13 20
8 -5 8 -2 -2 9 -9 11 -10 17 -2 17 11 0 6 41 -8 65 -3 6 -7 19 -8 30 -14 106
-63 165 -142 173 -90 8 -198 -42 -322 -149 -50 -43 -62 -49 -102 -49 -51 0
-57 8 -57 76 0 56 23 102 55 110 32 8 45 -2 45 -32 0 -32 24 -27 28 5 8 54
-62 79 -111 40z"/>
<path d="M1466 1934 c-12 -31 -6 -121 9 -134 20 -16 40 -3 24 16 -7 8 -12 42
-12 75 0 57 -9 75 -21 43z"/>
<path d="M1309 1903 c-16 -42 -17 -165 -1 -170 9 -4 12 13 12 64 0 37 4 83 9
101 12 40 -5 44 -20 5z"/>
<path d="M1648 1898 c-6 -36 6 -96 20 -110 15 -15 36 1 23 16 -6 7 -13 38 -17
69 -7 63 -19 74 -26 25z"/>
<path d="M1850 1927 c0 -2 7 -19 16 -36 11 -23 15 -49 12 -86 -4 -41 -2 -52 9
-48 41 16 19 173 -24 173 -7 0 -13 -2 -13 -3z"/>
<path d="M1753 1723 c-19 -7 -17 -79 2 -87 20 -7 37 27 29 59 -7 29 -14 34
-31 28z"/>
<path d="M1450 1686 c0 -41 21 -63 40 -42 18 22 3 76 -21 76 -15 0 -19 -7 -19
-34z"/>
<path d="M1543 1544 c-20 -9 -15 -34 6 -34 32 0 50 -11 44 -26 -3 -8 0 -14 7
-14 6 0 8 -4 5 -10 -3 -5 0 -10 8 -10 10 0 13 -7 10 -20 -4 -16 -2 -19 13 -13
11 4 13 8 6 11 -7 2 -10 7 -7 12 3 5 -4 25 -16 44 l-21 36 25 0 c20 0 24 -4
22 -24 -2 -18 1 -23 12 -19 9 4 13 14 11 28 -3 15 0 21 11 21 9 -1 18 4 21 9
5 10 -135 18 -157 9z"/>
<path d="M976 1425 c-3 -9 -6 -35 -6 -58 -1 -40 -1 -41 -16 -22 -8 11 -19 26
-23 34 -5 8 -16 11 -26 7 -16 -6 -15 -9 7 -39 21 -27 23 -36 14 -61 -9 -25 -7
-31 18 -53 16 -13 36 -23 45 -21 10 2 26 -13 45 -42 54 -85 113 -147 141 -147
22 0 24 2 13 15 -10 12 -10 14 0 8 8 -5 12 -1 12 11 -1 10 -34 53 -74 95 -60
64 -72 83 -68 103 6 34 -15 83 -40 91 -16 5 -19 13 -16 46 3 42 -14 63 -26 33z"/>
<path d="M1469 1307 c6 -8 8 -17 4 -21 -4 -4 1 -4 11 0 15 6 17 4 11 -6 -5 -9
-4 -11 3 -6 15 9 15 12 -4 30 -19 20 -41 22 -25 3z"/>
<path d="M1540 1300 c0 -5 5 -10 11 -10 5 0 7 5 4 10 -3 6 -8 10 -11 10 -2 0
-4 -4 -4 -10z"/>
<path d="M1439 1257 c-7 -12 -25 -33 -41 -47 -32 -26 -54 -60 -40 -60 5 0 14
12 21 26 6 15 14 24 17 21 3 -3 1 -16 -6 -29 -11 -22 -10 -22 4 -4 9 11 16 26
16 34 0 7 5 10 10 7 6 -4 9 -3 8 2 -2 5 9 21 25 35 22 20 24 27 12 31 -9 4
-19 -2 -26 -16z"/>
<path d="M1344 1125 c-4 -8 -11 -12 -18 -8 -6 3 -7 2 -3 -2 14 -16 33 -13 33
6 0 23 -5 24 -12 4z"/>
<path d="M1289 1063 c-1 -5 -1 -12 0 -17 1 -5 -4 -13 -11 -17 -9 -6 -10 -9 -1
-9 11 0 33 30 33 44 0 9 -20 7 -21 -1z"/>
<path d="M1209 1050 c-1 -5 -2 -16 -3 -22 -1 -7 -10 -12 -21 -11 -20 1 -20 1
-1 -12 20 -15 41 -11 31 6 -5 8 16 14 38 10 14 -2 7 7 -18 23 -14 9 -26 12
-26 6z"/>
<path d="M2157 972 c-7 -10 3 -52 12 -52 4 0 7 -8 8 -18 1 -10 13 -60 28 -111
15 -51 27 -108 27 -127 0 -38 12 -44 28 -14 22 40 -81 359 -103 322z"/>
</g>
</svg>
